<svg width="1440" height="613" fill="none" xmlns="http://www.w3.org/2000/svg"><path opacity=".816" d="M665.878 770V625.908h114.971V338.491H232.026v174.001h340.13v-22.751h41.654v-48.059h72.895v140.172h-52.068v100.123H275.371v-32.039H598.19v-24.03H494.055V545.81h-26.034v80.098h-192.65V293.5H0" stroke="#ECEFF1" stroke-width="3"/><g opacity=".816" stroke="#EFF1F4" stroke-width="3"><path d="M1304.24 150.838h100.28v76.196h-100.28v78.201H1440M1328.2 33.71c0-17.643-14.31-31.945-31.95-31.945s-31.94 14.302-31.94 31.944c0 17.643 14.3 31.945 31.94 31.945s31.95-14.302 31.95-31.945z"/><rect x="1293.59" y="182.782" width="13.31" height="13.31" rx="6.655" transform="rotate(-90 1293.59 182.782)"/><rect x="1293.59" y="134.866" width="13.31" height="13.31" rx="6.655" transform="rotate(-90 1293.59 134.866)"/><rect x="1293.59" y="110.908" width="13.31" height="13.31" rx="6.655" transform="rotate(-90 1293.59 110.908)"/><rect x="1293.59" y="158.824" width="13.31" height="13.31" rx="6.655" transform="rotate(-90 1293.59 158.824)"/></g></svg>