<svg width="36" height="36" fill="none" xmlns="http://www.w3.org/2000/svg"><path d="M18 36c9.941 0 18-8.059 18-18S27.941 0 18 0 0 8.059 0 18s8.059 18 18 18z" fill="#1AAF72"/><g clip-path="url(#clip0)"><path d="M26.59 24.684l-5.236-2.517-.04-11.41a.36.36 0 01.518-.326l4.964 2.387a.36.36 0 01.204.325v11.283c0 .211-.22.35-.41.258z" fill="#00FD8D"/><path d="M21.354 22.167l-5.667-2.724 5.456-8.982a.361.361 0 01.465-.138l5.033 2.42a.36.36 0 01.151.514l-5.438 8.91z" fill="#00E470"/><path d="M21.354 22.167l-5.667-2.724-5.194-8.458c-.144-.236.107-.515.357-.395l4.837 2.326 5.667 9.251z" fill="#00C967"/><path d="M15.277 24.684l-5.115-2.46a.286.286 0 01-.162-.258V10.623c0-.204.213-.338.397-.25l5.29 2.544v11.51c0 .211-.22.35-.41.258z" fill="#0ED389"/></g><defs><clipPath id="clip0"><path fill="#fff" transform="translate(10 9)" d="M0 0h17v17H0z"/></clipPath></defs></svg>