<svg width="37" height="36" xmlns="http://www.w3.org/2000/svg"><g fill="none"><circle fill="#FF4500" cx="18.5" cy="18" r="18"/><path d="M29.3 17.838a2.371 2.371 0 00-4.007-1.623 11.537 11.537 0 00-6.244-1.993L20.1 9.167l3.47.73a1.62 1.62 0 001.786 1.437 1.62 1.62 0 10-.346-3.222c-.512.053-.972.35-1.226.794l-3.974-.794a.502.502 0 00-.6.383v.008l-1.198 5.622a11.624 11.624 0 00-6.325 1.993 2.366 2.366 0 10-2.604 3.875 5.258 5.258 0 000 .712c0 3.629 4.233 6.58 9.453 6.58s9.453-2.947 9.453-6.58a5.258 5.258 0 000-.712 2.365 2.365 0 001.31-2.155zm-16.217 1.623c0-.894.73-1.623 1.624-1.623.895 0 1.625.729 1.625 1.623s-.73 1.623-1.625 1.623a1.63 1.63 0 01-1.624-1.623zm9.42 4.454a6.23 6.23 0 01-4.006 1.249 6.23 6.23 0 01-4.007-1.249.438.438 0 01.617-.616 5.301 5.301 0 003.373 1.019 5.34 5.34 0 003.39-.987.457.457 0 01.641.008.456.456 0 01-.008.64v-.064zm-.29-2.775a1.627 1.627 0 01-1.624-1.623c0-.894.73-1.623 1.624-1.623.895 0 1.625.73 1.625 1.623a1.62 1.62 0 01-1.556 1.684h-.08l.011-.06z" fill="#FFF"/></g></svg>