<svg width="95" height="20" viewBox="0 0 95 20" fill="none" xmlns="http://www.w3.org/2000/svg">
    <g clip-path="url(#clip0_100_4516)">
        <path d="M12.7918 9.99993C12.7918 12.7985 11.6029 15.311 9.71621 17.0259C9.06734 17.6191 8.33514 18.1143 7.54287 18.4955C6.75101 18.114 6.0191 17.6189 5.37028 17.0259C6.14585 16.831 6.8812 16.5016 7.54287 16.0525C9.45398 14.7607 10.7169 12.534 10.7169 10.0014C10.7169 7.46956 9.45472 5.24067 7.54287 3.94808C6.88154 3.4984 6.14608 3.16891 5.37028 2.97475C4.39328 2.72641 3.37316 2.69933 2.38435 2.89549C2.33991 2.9029 2.29621 2.91253 2.25102 2.92215C2.20658 2.92882 2.15991 2.93178 2.11324 2.93178C1.53769 2.93178 1.07324 2.45104 1.07324 1.86067C1.07324 1.73178 1.09546 1.6103 1.13398 1.49697L1.16806 1.41178C1.21713 1.3039 1.28287 1.20441 1.36287 1.11697C1.40287 1.07549 1.44583 1.03549 1.49176 1.00067C1.60792 0.90908 1.74347 0.845233 1.88806 0.814006L1.94139 0.803636L1.95472 0.801414C3.84427 0.420425 5.80656 0.667271 7.54287 1.50438C8.33499 1.88584 9.06716 2.38094 9.71621 2.97401C11.6029 4.6903 12.7918 7.2029 12.7918 10.0007V9.99993Z" fill="url(#paint0_linear_100_4516)"/>
        <path d="M7.54289 19.1881L7.28511 19.0637C6.43964 18.657 5.65826 18.1287 4.96585 17.4956L4.0903 16.697L5.22585 16.4133C5.93358 16.2362 6.60458 15.9358 7.20808 15.5259C9.02289 14.2985 10.1066 12.2333 10.1066 10C10.1066 7.76593 9.02215 5.7 7.20808 4.47408C6.52538 4.01117 5.75785 3.68791 4.94969 3.52289C4.14153 3.35788 3.30871 3.35438 2.49919 3.51259L2.48289 3.5163C2.4503 3.52148 2.41696 3.52815 2.38363 3.53556L2.33252 3.54445C2.25845 3.55482 2.18363 3.56 2.11178 3.56C1.20363 3.56148 0.462891 2.79778 0.462891 1.86074C0.462891 1.66519 0.494742 1.47185 0.559187 1.28667L0.565113 1.26889C0.579928 1.22963 0.596224 1.19111 0.61252 1.15259C0.671039 1.02148 0.743631 0.901483 0.828817 0.791854L0.836224 0.782224C0.921299 0.674263 1.01988 0.577671 1.12956 0.494817C1.31593 0.34961 1.53268 0.248329 1.76363 0.19852L1.81548 0.188891C2.43521 0.0628967 3.06604 -0.000385393 3.69845 1.7657e-06C5.12956 1.7657e-06 6.5103 0.314817 7.80067 0.936298C8.64588 1.34309 9.427 1.87141 10.1192 2.50445C12.2051 4.40074 13.4014 7.13259 13.4014 10.0007C13.4014 12.8689 12.2051 15.6007 10.1192 17.4978C9.42215 18.1333 8.64067 18.6615 7.79993 19.0652L7.54215 19.1881H7.54289ZM6.64882 17.2526C6.93622 17.4519 7.23474 17.6333 7.54289 17.7948C8.18326 17.4588 8.77776 17.0418 9.31178 16.5541C11.1355 14.8956 12.1814 12.5074 12.1814 9.99926C12.1814 7.49185 11.1355 5.10445 9.31178 3.44667C8.70672 2.89342 8.02392 2.43174 7.28511 2.0763C6.16647 1.5362 4.9399 1.25684 3.69771 1.25926C3.14808 1.25926 2.60141 1.31259 2.07252 1.42074L2.0103 1.43259L1.98067 1.44148C1.93671 1.45443 1.8957 1.47581 1.85993 1.50445C1.83 1.5273 1.80267 1.55339 1.77845 1.58222C1.71727 1.66316 1.68353 1.76152 1.68215 1.86296C1.68215 2.10741 1.87474 2.30593 2.11178 2.30593L2.14882 2.30371C2.19104 2.29482 2.23252 2.28593 2.27474 2.27926C3.23771 2.09165 4.22829 2.09645 5.1894 2.29338C6.15051 2.4903 7.06315 2.87546 7.87474 3.42667C10.034 4.88593 11.3236 7.34519 11.3236 10.0037C11.3236 12.6615 10.0347 15.1207 7.874 16.5815C7.48659 16.843 7.07548 17.0689 6.64882 17.2533V17.2526Z" fill="url(#paint1_linear_100_4516)"/>
        <path d="M13.9268 18.1409C13.9268 18.2624 13.9075 18.3795 13.8705 18.4883C13.8186 18.6494 13.7287 18.7956 13.6084 18.9146C13.4881 19.0336 13.341 19.1219 13.1794 19.1721L13.1594 19.175C13.116 19.1851 13.0723 19.1935 13.0282 19.2002C13.0208 19.2032 13.0119 19.2039 13.0045 19.2061C11.1274 19.5741 9.1815 19.3247 7.45787 18.495C6.66602 18.1135 5.9341 17.6184 5.28528 17.0254C3.39787 15.3098 2.20898 12.7972 2.20898 9.99946C2.20898 7.20168 3.39787 4.68983 5.28528 2.97428C5.93387 2.38079 6.66582 1.88541 7.45787 1.50391C8.25 1.88536 8.98217 2.38047 9.63121 2.97354C8.85538 3.16829 8.11977 3.49774 7.45787 3.94687C5.54528 5.24094 4.2838 7.46687 4.2838 10.0002C4.2838 12.5335 5.54676 14.7602 7.45787 16.0513C8.11943 16.5011 8.85515 16.8306 9.63121 17.0246C10.1668 17.1609 10.7275 17.2321 11.3038 17.2321C11.7786 17.2324 12.252 17.1827 12.7164 17.0839L12.7305 17.0817C12.7831 17.0733 12.8364 17.0693 12.8897 17.0698C13.4616 17.0683 13.9268 17.5476 13.9268 18.1395V18.1409Z" fill="url(#paint2_linear_100_4516)"/>
        <path d="M11.3023 19.9999C9.87049 19.9999 8.489 19.6851 7.19863 19.0636C6.35342 18.6568 5.5723 18.1285 4.88011 17.4955C2.79493 15.5992 1.59863 12.8681 1.59863 10.0006C1.59863 7.13324 2.79493 4.40065 4.8816 2.50435C5.57863 1.8688 6.35863 1.34065 7.20086 0.936944L7.45937 0.8125L7.71715 0.936944C8.56262 1.34369 9.34399 1.872 10.0364 2.50509L10.912 3.30361L9.77641 3.58731C9.06916 3.76445 8.39866 4.06485 7.79567 4.47472C5.97789 5.69991 4.89419 7.76657 4.89419 10.0006C4.89419 12.234 5.97789 14.2999 7.79197 15.5266C8.47768 15.991 9.24873 16.3148 10.0605 16.4792C10.8722 16.6436 11.7085 16.6454 12.5209 16.4844L12.5505 16.4784C12.559 16.4768 12.5674 16.4748 12.5757 16.4725C12.5934 16.4688 12.6201 16.4621 12.6527 16.4584C12.729 16.4466 12.806 16.4406 12.8883 16.4406C13.7979 16.4406 14.5372 17.2036 14.5372 18.1399C14.5372 18.3318 14.5075 18.5177 14.4483 18.6947C14.2786 19.2125 13.869 19.6184 13.352 19.7762L13.2853 19.7918L13.252 19.7992L13.169 19.8155C13.1619 19.8172 13.1548 19.8184 13.1475 19.8192C12.5398 19.9389 11.9218 19.9995 11.3023 19.9999V19.9999ZM7.45715 2.20509C6.81678 2.54115 6.22228 2.95815 5.68826 3.44583C3.86456 5.10361 2.81863 7.49324 2.81863 9.99917C2.81863 12.5058 3.86456 14.8947 5.68826 16.5532C6.2936 17.1061 6.97634 17.5678 7.71493 17.9236C8.83341 18.4643 10.06 18.7442 11.3023 18.7421C11.8297 18.7421 12.3572 18.691 12.8712 18.5918L12.9305 18.5725H12.9705L13.0046 18.5651L13.0342 18.5592C13.0948 18.5356 13.1494 18.4989 13.1942 18.4518C13.2391 18.4047 13.2729 18.3483 13.2934 18.2866C13.3095 18.2394 13.3175 18.1898 13.3172 18.1399C13.3177 18.0786 13.3053 18.018 13.2808 17.9618C13.2562 17.9057 13.2201 17.8553 13.1748 17.8141C13.1295 17.7728 13.0761 17.7416 13.0179 17.7225C12.9597 17.7033 12.8981 17.6966 12.8372 17.7029C11.8581 17.9092 10.8475 17.9159 9.86581 17.7226C8.88411 17.5292 7.95151 17.1398 7.12382 16.5777C4.9653 15.1184 3.67567 12.6592 3.67567 9.99991C3.67567 7.34065 4.96456 4.88139 7.1253 3.42213C7.51265 3.15922 7.92384 2.93329 8.35345 2.74731C8.06595 2.54858 7.76663 2.3675 7.45715 2.20509V2.20509Z" fill="url(#paint3_linear_100_4516)"/>
        <path d="M21.9988 14.8151C21.3225 14.8151 20.7158 14.7395 20.1817 14.5869C19.6484 14.4351 19.2017 14.2528 18.8454 14.0388C18.4425 13.8017 18.2402 13.4869 18.2402 13.0928C18.2402 12.8336 18.341 12.6114 18.5439 12.4262C18.7454 12.241 18.9891 12.1484 19.2743 12.1484C19.4884 12.1484 19.7321 12.2225 20.0054 12.3684C20.3136 12.5365 20.6402 12.6773 20.9847 12.7906C21.3536 12.9068 21.7387 12.9636 22.1254 12.9588C22.5765 12.9588 22.9113 12.8884 23.1321 12.7484C23.3513 12.6077 23.4617 12.4247 23.4617 12.2002C23.4645 12.111 23.4437 12.0226 23.4015 11.9439C23.3592 11.8652 23.2969 11.7991 23.221 11.7521C23.0602 11.6454 22.7254 11.5632 22.215 11.5077L21.2713 11.4062C20.3328 11.3054 19.6299 11.0402 19.1602 10.6128C18.6913 10.1854 18.4573 9.61654 18.4573 8.90765C18.4573 8.09728 18.7654 7.4558 19.3832 6.98321C20.001 6.50988 20.881 6.27432 22.0202 6.27432C22.5076 6.27432 22.9736 6.31951 23.418 6.40914C23.8404 6.49114 24.2505 6.62733 24.638 6.81432C25.1254 7.05062 25.3691 7.36099 25.3691 7.74321C25.3691 8.00247 25.2802 8.22247 25.1025 8.40173C24.9247 8.58173 24.6862 8.6721 24.3891 8.6721C24.2943 8.6721 24.1936 8.65728 24.0854 8.62914C23.9447 8.58779 23.8079 8.53425 23.6765 8.46914C23.126 8.22949 22.531 8.10859 21.9306 8.11432C21.5513 8.11432 21.2743 8.17358 21.1017 8.2921C20.9299 8.40988 20.8432 8.56469 20.8432 8.75654C20.8432 8.9484 20.9202 9.09728 21.0758 9.20395C21.2299 9.31136 21.5499 9.38765 22.0373 9.4321L22.9817 9.53284C24.0032 9.64543 24.7358 9.9158 25.1817 10.3432C25.6276 10.7714 25.8499 11.3284 25.8499 12.0151C25.8499 12.8595 25.5136 13.5373 24.8432 14.0499C24.1691 14.5588 23.2225 14.8151 21.9988 14.8151V14.8151ZM36.018 14.7306C35.3054 14.7306 34.8365 14.3647 34.6106 13.6336L33.3817 9.71654H33.3469L32.1002 13.6336C31.8513 14.3654 31.3936 14.7299 30.7291 14.7299C30.0521 14.7299 29.5832 14.3647 29.3217 13.6336L27.3069 7.97728C27.2533 7.8191 27.2233 7.65386 27.218 7.48691C27.218 7.16099 27.3343 6.89062 27.5662 6.67654C27.798 6.46247 28.0847 6.3558 28.4299 6.3558C29.0232 6.3558 29.421 6.68765 29.6232 7.3521L30.8706 11.4877H30.9054L32.1343 7.36839C32.3476 6.69284 32.7573 6.35506 33.3632 6.35506C33.9565 6.35506 34.361 6.69284 34.5743 7.36839L35.8743 11.4877H35.9099L37.1032 7.3521C37.3054 6.68765 37.7025 6.3558 38.2973 6.3558C38.6417 6.3558 38.9262 6.46247 39.1521 6.67654C39.378 6.89062 39.4906 7.16025 39.4906 7.48691C39.4906 7.62247 39.461 7.78543 39.4017 7.97728L37.3899 13.6336C37.1291 14.3647 36.6713 14.7299 36.018 14.7299V14.7306ZM42.538 5.63136C42.1469 5.63136 41.8136 5.50173 41.5402 5.24247C41.4089 5.12297 41.3044 4.97689 41.2338 4.81394C41.1631 4.65098 41.128 4.47487 41.1306 4.29728C41.1306 3.92617 41.2669 3.61062 41.5402 3.35136C41.8083 3.09489 42.1671 2.95529 42.538 2.96321C42.9306 2.96321 43.2632 3.09358 43.5365 3.35136C43.8099 3.61062 43.9462 3.92543 43.9462 4.29728C43.9462 4.66765 43.8084 4.98395 43.5365 5.24247C43.2625 5.50173 42.9299 5.63136 42.538 5.63136ZM42.538 14.7306C42.1706 14.7306 41.8706 14.6202 41.638 14.401C41.4062 14.181 41.2899 13.8751 41.2899 13.4802V7.60617C41.2899 7.2121 41.4062 6.90543 41.638 6.68543C41.8699 6.46617 42.1691 6.35728 42.538 6.35728C42.895 6.35728 43.1913 6.46691 43.4291 6.68543C43.6662 6.90543 43.7847 7.21136 43.7847 7.60617V13.481C43.7847 13.8751 43.6662 14.1817 43.4291 14.4017C43.1906 14.6202 42.895 14.7306 42.538 14.7306ZM48.9684 14.7306C47.9476 14.7306 47.2313 14.5084 46.8217 14.064C46.4121 13.6195 46.2069 12.9299 46.2069 11.9958V8.3158C46.2069 8.2484 46.1654 8.21506 46.0825 8.21506H46.0113C45.6906 8.21506 45.4439 8.13358 45.2721 7.97062C45.0995 7.80691 45.0128 7.5958 45.0128 7.33728C45.0128 7.07802 45.0995 6.86691 45.2721 6.70395C45.4439 6.54099 45.6906 6.45877 46.0113 6.45877H46.0825C46.1654 6.45877 46.2069 6.42543 46.2069 6.35803V5.14099C46.2069 4.74691 46.3225 4.44025 46.555 4.22025C46.7869 4.00099 47.0854 3.8921 47.455 3.8921C47.8106 3.8921 48.1047 4.00173 48.3365 4.22025C48.5684 4.43951 48.6847 4.74617 48.6847 5.14099V6.35728C48.6847 6.42395 48.7195 6.45803 48.7913 6.45803H49.4676C49.7876 6.45803 50.0343 6.53951 50.2069 6.70247C50.3795 6.86543 50.4662 7.07654 50.4662 7.3358C50.4662 7.59506 50.3795 7.80543 50.2069 7.96914C50.0343 8.1321 49.7891 8.21358 49.4676 8.21358H48.7913C48.7195 8.21358 48.6847 8.24765 48.6847 8.31506V11.9277C48.6847 12.1758 48.7343 12.3551 48.8358 12.4684C48.9365 12.581 49.1062 12.6484 49.3432 12.6706C49.7343 12.7158 50.0165 12.8365 50.1891 13.0336C50.361 13.2314 50.4476 13.4588 50.4476 13.7173C50.4476 14.0099 50.338 14.2514 50.1173 14.4432C49.8973 14.6343 49.5506 14.7306 49.075 14.7306H48.9684V14.7306ZM55.4528 14.8151C54.538 14.8151 53.7639 14.6188 53.1284 14.224C52.4928 13.8299 52.0439 13.2514 51.7832 12.4847C51.6823 12.2146 51.6108 11.9345 51.5699 11.6491C51.5181 11.2828 51.4941 10.9131 51.498 10.5432C51.498 10.1158 51.5217 9.74691 51.5699 9.43728C51.6173 9.12765 51.6884 8.84914 51.7832 8.60099C52.0439 7.8358 52.4928 7.25654 53.1284 6.86173C53.7632 6.46765 54.538 6.27136 55.4528 6.27136C56.058 6.27136 56.5936 6.3558 57.0558 6.52395C57.5188 6.69284 57.8869 6.90765 58.1595 7.16543C58.3373 7.33358 58.4654 7.4921 58.5432 7.63877C58.6195 7.78469 58.6588 7.94247 58.6588 8.11136C58.6588 8.40395 58.555 8.64543 58.3476 8.83728C58.1402 9.0284 57.881 9.12469 57.5728 9.12469C57.3825 9.12469 57.2099 9.08247 57.0558 8.99728C56.877 8.89463 56.7099 8.77294 56.5573 8.63432C56.2832 8.38617 55.9276 8.26395 55.4876 8.26395C54.8113 8.26395 54.3765 8.56173 54.1876 9.15877C54.1284 9.3158 54.0869 9.50247 54.0632 9.71654C54.0395 9.92988 54.0284 10.2062 54.0284 10.544C54.0284 10.8817 54.0402 11.1588 54.0632 11.3721C54.0869 11.5854 54.1284 11.7714 54.1876 11.9291C54.3773 12.5262 54.8113 12.8254 55.4876 12.8254C55.9269 12.8254 56.2839 12.701 56.5573 12.4536C56.735 12.2965 56.9017 12.1758 57.0558 12.0906C57.2099 12.0062 57.3825 11.9639 57.5728 11.9639C57.8817 11.9639 58.1402 12.0595 58.3476 12.2514C58.555 12.4425 58.6588 12.6847 58.6588 12.9773C58.6588 13.1454 58.621 13.3032 58.5432 13.4499C58.4654 13.5958 58.338 13.7536 58.1602 13.9225C57.8862 14.1817 57.5188 14.3958 57.0565 14.5639C56.5928 14.7321 56.0588 14.8151 55.4528 14.8151V14.8151ZM66.855 14.7306C66.498 14.7306 66.201 14.6202 65.9639 14.401C65.7269 14.181 65.6076 13.8751 65.6076 13.4802V9.76691C65.6076 9.31728 65.4951 8.9558 65.2691 8.68543C65.0439 8.4158 64.7054 8.28099 64.2543 8.28099C63.8032 8.28099 63.4669 8.4158 63.2476 8.68617C63.0276 8.9558 62.918 9.3158 62.918 9.76691V13.481C62.918 13.8751 62.7995 14.1817 62.5617 14.4017C62.3247 14.6217 62.0276 14.7314 61.6714 14.7314C61.3032 14.7314 61.0032 14.6217 60.7713 14.4017C60.5395 14.1817 60.4232 13.8758 60.4232 13.481V4.29728C60.4232 3.90321 60.5395 3.59654 60.7713 3.37654C61.0032 3.15654 61.3025 3.04691 61.6714 3.04691C62.0276 3.04691 62.3247 3.15654 62.5617 3.37654C62.7988 3.59654 62.918 3.90247 62.918 4.29728V7.15062H62.9365C63.138 6.92543 63.4202 6.72321 63.7817 6.54247C64.1439 6.36173 64.6039 6.2721 65.1632 6.2721C65.6373 6.2721 66.0595 6.34765 66.4276 6.50025C66.7958 6.6521 67.1047 6.86321 67.3543 7.13358C67.6032 7.40321 67.7906 7.72395 67.915 8.09506C68.0395 8.46617 68.1025 8.87136 68.1025 9.31136V13.4817C68.1025 13.8751 67.9862 14.1817 67.7558 14.4017C67.5247 14.6217 67.2225 14.7306 66.8543 14.7306H66.855ZM73.9802 14.8151C72.9706 14.8151 72.1395 14.6121 71.4862 14.2077C70.8328 13.8017 70.3825 13.2284 70.1321 12.4854C70.0358 12.2262 69.9662 11.9447 69.918 11.641C69.8663 11.2779 69.8425 10.9114 69.8469 10.5447C69.8469 10.1165 69.8669 9.74765 69.9099 9.43802C69.9513 9.1284 70.0195 8.84395 70.1151 8.58543C70.3758 7.84173 70.8299 7.27136 71.478 6.87136C72.1247 6.47136 72.9121 6.2721 73.8388 6.2721C74.8002 6.2721 75.5988 6.4721 76.2343 6.87136C76.8691 7.27062 77.3121 7.8358 77.561 8.56765C77.6558 8.86025 77.7269 9.1558 77.7751 9.45432C77.8217 9.75284 77.8462 10.0936 77.8462 10.4758C77.8462 10.7002 77.7751 10.8869 77.6321 11.0328C77.4899 11.1795 77.2876 11.2528 77.0269 11.2528H72.4491C72.378 11.2528 72.3425 11.2862 72.3425 11.3536C72.3425 11.5002 72.3721 11.6573 72.4313 11.8269C72.5499 12.1751 72.7639 12.4395 73.0736 12.6195C73.3817 12.8002 73.7625 12.8906 74.2143 12.8906C74.5106 12.8906 74.7958 12.8514 75.0691 12.7721C75.334 12.6969 75.5906 12.5952 75.8351 12.4684C76.1321 12.3002 76.4173 12.2158 76.6906 12.2158C76.9513 12.2158 77.1684 12.2973 77.341 12.4602C77.5128 12.6239 77.5995 12.8351 77.5995 13.0943C77.5995 13.4425 77.4336 13.724 77.1002 13.938C76.6766 14.2118 76.2182 14.4276 75.7373 14.5795C75.2417 14.7365 74.6565 14.8151 73.9802 14.8151V14.8151ZM75.2802 9.68173C75.3513 9.68173 75.3862 9.64914 75.3862 9.58099C75.3862 9.44617 75.378 9.33358 75.3595 9.24395C75.3418 9.15315 75.3211 9.06297 75.2973 8.97358C75.2121 8.69308 75.0243 8.45502 74.7713 8.30691C74.5158 8.15432 74.2099 8.07877 73.8543 8.07877C73.4988 8.07877 73.195 8.15432 72.9462 8.30691C72.6978 8.45814 72.5138 8.69543 72.4291 8.97358C72.4047 9.06247 72.3847 9.15358 72.3662 9.24321C72.3464 9.35468 72.3375 9.4678 72.3395 9.58099C72.3395 9.64914 72.3743 9.68173 72.4462 9.68173H75.2802V9.68173ZM80.9091 14.7306C80.541 14.7306 80.241 14.6202 80.0091 14.401C79.7773 14.181 79.661 13.8751 79.661 13.4802V7.60617C79.661 7.2121 79.7773 6.90543 80.0091 6.68543C80.241 6.46617 80.5395 6.35728 80.9091 6.35728C81.2054 6.35728 81.4639 6.4358 81.6832 6.59284C81.9025 6.74988 82.0484 6.9758 82.1195 7.2684V7.28543H82.1373C82.3395 7.01506 82.6284 6.77951 83.0017 6.57654C83.3758 6.37432 83.8121 6.27284 84.3113 6.27284C84.5128 6.27284 84.6854 6.28765 84.8284 6.3158C84.9706 6.34395 85.1017 6.38617 85.2195 6.44247C85.4454 6.54321 85.6113 6.67877 85.7188 6.84765C85.8262 7.01803 85.8795 7.20321 85.8795 7.40543C85.8795 7.75432 85.7662 8.04173 85.541 8.26617C85.3151 8.49136 85.0188 8.60469 84.6506 8.60469C84.4696 8.60052 84.2899 8.57186 84.1165 8.51951C83.9076 8.46226 83.6917 8.43385 83.4751 8.43506C83.0121 8.43506 82.6758 8.58395 82.4684 8.88247C82.261 9.18099 82.1565 9.60543 82.1565 10.1565V13.4832C82.1565 13.8773 82.0373 14.184 81.8002 14.404C81.5617 14.6202 81.2654 14.7299 80.9091 14.7299V14.7306ZM90.6706 14.8151C89.661 14.8151 88.8299 14.6121 88.1765 14.2077C87.5239 13.8017 87.0728 13.2284 86.8225 12.4854C86.7237 12.2116 86.652 11.9288 86.6084 11.641C86.557 11.2779 86.5332 10.9114 86.5373 10.5447C86.5373 10.1165 86.5573 9.74765 86.6002 9.43802C86.6417 9.1284 86.7099 8.84395 86.8054 8.58543C87.0662 7.84173 87.5202 7.27136 88.1684 6.87136C88.8151 6.47136 89.6025 6.2721 90.5291 6.2721C91.4906 6.2721 92.2899 6.4721 92.9247 6.87136C93.5602 7.27062 94.0025 7.8358 94.2513 8.56765C94.3462 8.86025 94.4173 9.1558 94.4654 9.45432C94.5121 9.75284 94.5365 10.0936 94.5365 10.4758C94.5365 10.7002 94.4654 10.8869 94.3225 11.0328C94.1802 11.1795 93.978 11.2528 93.7173 11.2528H89.1395C89.0684 11.2528 89.0336 11.2862 89.0336 11.3536C89.0336 11.5002 89.0632 11.6573 89.1225 11.8269C89.241 12.1751 89.4543 12.4395 89.7639 12.6195C90.0728 12.8002 90.4521 12.8906 90.9047 12.8906C91.201 12.8906 91.4862 12.8514 91.7595 12.7721C92.0336 12.6936 92.2884 12.5928 92.5262 12.4684C92.8225 12.3002 93.1076 12.2158 93.381 12.2158C93.6417 12.2158 93.8588 12.2973 94.0313 12.4602C94.2032 12.6239 94.2899 12.8351 94.2899 13.0943C94.2899 13.4425 94.1239 13.724 93.7906 13.938C93.3671 14.212 92.9087 14.4277 92.4276 14.5795C91.9321 14.7365 91.3484 14.8151 90.6706 14.8151V14.8151ZM91.9714 9.68173C92.0432 9.68173 92.078 9.64914 92.078 9.58099C92.078 9.44617 92.0691 9.33358 92.0513 9.24395C92.0334 9.15314 92.0124 9.06297 91.9884 8.97358C91.9033 8.69327 91.7158 8.45527 91.4632 8.30691C91.2076 8.15432 90.901 8.07877 90.5462 8.07877C90.1906 8.07877 89.8862 8.15432 89.6373 8.30691C89.3891 8.4583 89.2051 8.69553 89.1202 8.97358C89.0958 9.06247 89.0758 9.15358 89.058 9.24321C89.0381 9.35465 89.0291 9.46779 89.0313 9.58099C89.0313 9.64914 89.0662 9.68173 89.1373 9.68173H91.9714Z" fill="white"/>
    </g>
    <defs>
        <linearGradient id="paint0_linear_100_4516" x1="1.07324" y1="9.56142" x2="12.7918" y2="9.56142" gradientUnits="userSpaceOnUse">
            <stop stop-color="#5961F9"/>
            <stop offset="1" stop-color="#5951F9"/>
        </linearGradient>
        <linearGradient id="paint1_linear_100_4516" x1="0.462891" y1="9.59408" x2="13.4021" y2="9.59408" gradientUnits="userSpaceOnUse">
            <stop stop-color="#5961F9"/>
            <stop offset="1" stop-color="#5951F9"/>
        </linearGradient>
        <linearGradient id="paint2_linear_100_4516" x1="2.20898" y1="10.4387" x2="13.9268" y2="10.4387" gradientUnits="userSpaceOnUse">
            <stop stop-color="#5961F9"/>
            <stop offset="1" stop-color="#5951F9"/>
        </linearGradient>
        <linearGradient id="paint3_linear_100_4516" x1="1.59863" y1="10.4058" x2="14.5372" y2="10.4058" gradientUnits="userSpaceOnUse">
            <stop stop-color="#5961F9"/>
            <stop offset="1" stop-color="#5951F9"/>
        </linearGradient>
        <clipPath id="clip0_100_4516">
            <rect width="94.0741" height="20" fill="white" transform="translate(0.462891)"/>
        </clipPath>
    </defs>
</svg>
