<svg width="37" height="36" xmlns="http://www.w3.org/2000/svg"><g fill="none" fill-rule="evenodd"><circle fill="#55ACEE" fill-rule="nonzero" cx="18.2" cy="18" r="18"/><path d="M18.015 14.63l.035.623-.589-.076c-2.143-.292-4.016-1.284-5.606-2.949l-.777-.826-.2.61c-.425 1.36-.154 2.797.73 3.763.47.533.365.61-.448.292-.283-.102-.53-.178-.554-.14-.082.09.2 1.246.424 1.703.307.636.93 1.259 1.614 1.627l.577.293-.683.013c-.66 0-.683.012-.612.28.235.825 1.166 1.702 2.202 2.084l.73.267-.636.406a6.31 6.31 0 01-3.156.941c-.53.013-.966.064-.966.102 0 .127 1.437.839 2.273 1.118 2.509.827 5.489.47 7.726-.94 1.59-1.004 3.18-3 3.922-4.932.4-1.03.801-2.911.801-3.813 0-.585.036-.661.695-1.36.389-.407.754-.852.825-.98.117-.24.106-.24-.495-.025-1.001.382-1.143.33-.648-.241.365-.407.801-1.144.801-1.36 0-.038-.177.025-.377.14-.212.127-.683.317-1.036.432l-.636.216-.577-.42c-.318-.229-.766-.483-1.002-.559-.6-.178-1.519-.153-2.06.05-1.473.573-2.403 2.047-2.297 3.662z" fill="#FFF"/></g></svg>